<svg width="19" height="22" viewBox="0 0 19 22" fill="none" xmlns="http://www.w3.org/2000/svg">
<path d="M18.0457 15.3543C17.5123 15.0462 17.1875 14.4734 17.1875 13.8574V9.88281C17.1875 6.34915 14.8177 3.36905 11.5807 2.44488C11.5941 2.34794 11.6015 2.24907 11.6015 2.14844C11.6015 0.961898 10.6396 0 9.4531 0C8.26656 0 7.30466 0.961898 7.30466 2.14844C7.30466 2.24907 7.31213 2.34794 7.3255 2.44488C4.08849 3.36905 1.71872 6.34915 1.71872 9.88281V13.8574C1.71872 14.4734 1.39392 15.0462 0.860505 15.3543C0.355193 15.6461 0.0122164 16.1876 0.000314012 16.8102C-0.0182055 17.7778 0.784924 18.5625 1.75267 18.5625H6.0156C6.0156 20.461 7.55461 22 9.4531 22C11.3516 22 12.8906 20.461 12.8906 18.5625H17.1535C18.1213 18.5625 18.9244 17.7778 18.9059 16.8102C18.894 16.1876 18.551 15.646 18.0457 15.3543Z" fill="black"/>
</svg>
