<svg width="32" height="32" viewBox="0 0 32 32" fill="none" xmlns="http://www.w3.org/2000/svg">
<path d="M14.4775 11.9222L14.7117 6.20184C14.7192 6.02079 14.6956 5.84233 14.6542 5.67053C14.7375 5.57373 14.7911 5.43886 14.7911 5.28663V3.80502C14.7911 2.34479 13.8279 1.15659 12.6443 1.15659L2.42689 1.15696C1.24321 1.15696 0.280055 2.34516 0.280055 3.80539V5.287C0.280055 5.43923 0.333666 5.57409 0.416931 5.67053C0.3753 5.84196 0.35164 6.02042 0.359127 6.20147L0.593339 11.9218C0.468148 11.9831 0.353139 12.0751 0.258794 12.1971C0.0820865 12.4265 -0.0119528 12.7391 0.00121955 13.0554L0.428608 23.4883C0.449273 23.9952 0.732599 24.4072 1.11027 24.5406L1.35407 30.4918C1.38851 31.3376 1.95367 32 2.6404 32H12.4315C13.1182 32 13.6831 31.3375 13.7178 30.4918L13.9616 24.541C14.3393 24.408 14.6229 23.9956 14.6433 23.4887L15.0704 13.0558C15.0835 12.7399 14.9895 12.4269 14.8128 12.1978C14.7181 12.0755 14.6027 11.9839 14.4775 11.9222ZM1.1388 3.80548C1.1388 2.92907 1.71654 2.21632 2.42697 2.21632H12.6443C13.3548 2.21632 13.9325 2.92905 13.9325 3.80548V4.75759L1.13895 4.75722L1.1388 3.80548ZM13.8542 6.14868L13.6212 11.8372L1.44939 11.8369L1.21637 6.14869C1.21158 6.02676 1.24662 5.91407 1.30383 5.8169H13.7669C13.8238 5.9137 13.8593 6.02638 13.8542 6.14868ZM12.8598 30.4377C12.8481 30.7196 12.6597 30.9405 12.4309 30.9405H2.63983C2.41101 30.9405 2.22232 30.7196 2.21094 30.4377L1.97164 24.5899H13.0991L12.8598 30.4377ZM13.7849 23.4349C13.7825 23.4889 13.7469 23.5306 13.7035 23.5306H1.36762C1.3239 23.5306 1.28825 23.4881 1.28586 23.4345L0.858473 13.0026C0.857275 12.9667 0.870153 12.942 0.880935 12.9279C0.892017 12.9135 0.911485 12.8965 0.940237 12.8965H14.1302C14.1593 12.8965 14.1784 12.9135 14.1892 12.9279C14.2003 12.9423 14.2132 12.9667 14.2117 13.0026L13.7849 23.4349ZM31.9893 8.66611L31.6874 5.70441C31.6619 5.45648 31.5661 5.2396 31.4286 5.07666C31.5673 4.8232 31.6485 4.51801 31.6485 4.18991V3.49935C31.6485 2.62294 31.0707 1.91019 30.3603 1.91019L27.459 1.91056V1.05928C27.459 0.475129 27.0735 0 26.6003 0H23.2668C22.7933 0 22.4082 0.475148 22.4082 1.05928V1.91056H19.5069C18.7965 1.91056 18.2187 2.62329 18.2187 3.49972V4.19028C18.2187 4.51838 18.2999 4.82393 18.4386 5.0774C18.3014 5.24034 18.2055 5.45722 18.1801 5.70514L17.8779 8.66619C17.8686 8.75856 17.8653 8.85203 17.8692 8.94478L18.7519 30.4917C18.7866 31.3374 19.3515 31.9999 20.0382 31.9999H29.8293C30.516 31.9999 31.0812 31.3374 31.1162 30.4917L31.9986 8.94478C32.0022 8.85204 31.9986 8.75848 31.9893 8.66611ZM23.267 1.05962H26.6005V1.9109H23.267V1.05962ZM19.0779 3.49968C19.0779 3.20779 19.2704 2.96984 19.5074 2.96984L30.3604 2.97021C30.5973 2.97021 30.7898 3.20778 30.7898 3.50005V4.19061C30.7898 4.48249 30.5973 4.72045 30.3604 4.72045L19.5074 4.72008C19.2705 4.72008 19.0779 4.4825 19.0779 4.19024V3.49968ZM30.2583 30.438C30.2469 30.72 30.0582 30.9409 29.8294 30.9409H20.0383C19.8095 30.9409 19.6211 30.72 19.6097 30.438L19.1916 20.2321H30.6756L30.2583 30.438ZM31.0894 10.1425H18.7788L18.7276 8.89113C18.7264 8.86047 18.7273 8.82906 18.7306 8.7984L19.0328 5.83735H30.8358L31.1377 8.7984C31.141 8.82906 31.1419 8.86047 31.1407 8.89113L31.0894 10.1425Z" fill="white"/>
</svg>
