<svg width="18" height="18" viewBox="0 0 18 18" fill="none" xmlns="http://www.w3.org/2000/svg">
<g clip-path="url(#clip0_428_2656)">
<path d="M3.72637 9H2.23574C1.4159 9 0.745117 9.675 0.745117 10.5V15C0.745117 15.825 1.4159 16.5 2.23574 16.5H3.72637C4.54621 16.5 5.21699 15.825 5.21699 15V10.5C5.21699 9.675 4.54621 9 3.72637 9Z" fill="black"/>
<path d="M9.68926 1.5H8.19863C7.37879 1.5 6.70801 2.175 6.70801 3V15C6.70801 15.825 7.37879 16.5 8.19863 16.5H9.68926C10.5091 16.5 11.1799 15.825 11.1799 15V3C11.1799 2.175 10.5091 1.5 9.68926 1.5Z" fill="black"/>
<path d="M15.6512 6H14.1605C13.3407 6 12.6699 6.675 12.6699 7.5V15C12.6699 15.825 13.3407 16.5 14.1605 16.5H15.6512C16.471 16.5 17.1418 15.825 17.1418 15V7.5C17.1418 6.675 16.471 6 15.6512 6Z" fill="black"/>
</g>
<defs>
<clipPath id="clip0_428_2656">
<rect width="17.8875" height="18" fill="white"/>
</clipPath>
</defs>
</svg>
