<svg width="18" height="18" viewBox="0 0 18 18" fill="none" xmlns="http://www.w3.org/2000/svg">
<g clip-path="url(#clip0_431_2675)">
<path d="M15.8404 7.19998C15.8404 6.80254 15.5178 6.47998 15.1204 6.47998C14.723 6.47998 14.4004 6.80254 14.4004 7.19998C14.4004 7.37134 14.4004 12.4286 14.4004 12.6C14.4004 12.9974 14.723 13.32 15.1204 13.32C15.5178 13.32 15.8404 12.9974 15.8404 12.6C15.8404 12.4286 15.8404 7.37134 15.8404 7.19998Z" stroke="black" stroke-width="2" stroke-miterlimit="10"/>
<path d="M10.0796 16.92C10.477 16.92 10.7996 16.5974 10.7996 16.2C10.7996 15.8025 10.477 15.48 10.0796 15.48C9.90821 15.48 8.45093 15.48 8.27957 15.48C7.88213 15.48 7.55957 15.8025 7.55957 16.2C7.55957 16.5974 7.88213 16.92 8.27957 16.92C8.45093 16.92 9.90821 16.92 10.0796 16.92Z" stroke="black" stroke-width="2" stroke-miterlimit="10"/>
<path d="M2.87988 6.84021C2.87988 3.46017 5.61984 0.720215 8.99988 0.720215C12.3799 0.720215 15.1199 3.46017 15.1199 6.84021" stroke="black" stroke-width="2" stroke-miterlimit="10"/>
<path d="M15.8398 7.2002C16.8342 7.2002 17.6398 8.40872 17.6398 9.9002C17.6398 11.391 16.8342 12.6002 15.8398 12.6002" stroke="black" stroke-width="2" stroke-miterlimit="10"/>
<path d="M2.16016 7.19998C2.16016 6.80254 2.48272 6.47998 2.88016 6.47998C3.2776 6.47998 3.60016 6.80254 3.60016 7.19998C3.60016 7.37134 3.60016 12.4286 3.60016 12.6C3.60016 12.9974 3.2776 13.32 2.88016 13.32C2.48272 13.32 2.16016 12.9974 2.16016 12.6C2.16016 12.4286 2.16016 7.37134 2.16016 7.19998Z" stroke="black" stroke-width="2" stroke-miterlimit="10"/>
<path d="M2.16035 7.2002C1.16639 7.2002 0.360352 8.40872 0.360352 9.9002C0.360352 11.391 1.16639 12.6002 2.16035 12.6002" stroke="black" stroke-width="2" stroke-miterlimit="10"/>
<path d="M15.1198 13.3198C15.1198 15.1198 14.0398 16.1998 12.2398 16.1998H10.7998" stroke="black" stroke-width="2" stroke-miterlimit="10"/>
</g>
<defs>
<clipPath id="clip0_431_2675">
<rect width="18" height="18" fill="white"/>
</clipPath>
</defs>
</svg>
