<svg width="20" height="20" viewBox="0 0 20 20" fill="none" xmlns="http://www.w3.org/2000/svg">
<g clip-path="url(#clip0_384_3305)">
<path d="M10.0007 6.66659C8.15898 6.66659 6.66732 8.15825 6.66732 9.99992C6.66732 11.8416 8.15898 13.3333 10.0007 13.3333C11.8423 13.3333 13.334 11.8416 13.334 9.99992C13.334 8.15825 11.8423 6.66659 10.0007 6.66659ZM17.4507 9.16659C17.0673 5.69159 14.309 2.93325 10.834 2.54992V0.833252H9.16732V2.54992C5.69232 2.93325 2.93398 5.69159 2.55065 9.16659H0.833984V10.8333H2.55065C2.93398 14.3083 5.69232 17.0666 9.16732 17.4499V19.1666H10.834V17.4499C14.309 17.0666 17.0673 14.3083 17.4507 10.8333H19.1673V9.16659H17.4507ZM10.0007 15.8333C6.77982 15.8333 4.16732 13.2208 4.16732 9.99992C4.16732 6.77909 6.77982 4.16659 10.0007 4.16659C13.2215 4.16659 15.834 6.77909 15.834 9.99992C15.834 13.2208 13.2215 15.8333 10.0007 15.8333Z" fill="#12B886"/>
</g>
<defs>
<clipPath id="clip0_384_3305">
<rect width="20" height="20" fill="white"/>
</clipPath>
</defs>
</svg>
