<?xml version="1.0" encoding="utf-8"?><svg xml:space="preserve" viewBox="0 0 100 100" y="0" x="0" xmlns="http://www.w3.org/2000/svg" id="Layer_1" version="1.1" width="200px" height="200px" xmlns:xlink="http://www.w3.org/1999/xlink" style="width:100%;height:100%;background-size:initial;background-repeat-y:initial;background-repeat-x:initial;background-position-y:initial;background-position-x:initial;background-origin:initial;background-color:initial;background-clip:initial;background-attachment:initial;animation-play-state:paused" ><g class="ldl-scale" style="transform-origin:50% 50%;transform:rotate(0deg) scale(0.8, 0.8);animation-play-state:paused" ><g style="animation-play-state:paused" ><path fill="#cccccb" d="M76.4 24.5H23.6l4.9-12.3c.5-1.4 1.9-2.3 3.4-2.3h36.4c1.5 0 2.8.9 3.4 2.3l4.7 12.3z" style="fill:rgb(204, 204, 203);animation-play-state:paused" ></path>
<path fill="#e6e6e6" d="M67.2 90H32.8c-1.9 0-3.5-1.5-3.6-3.3l-6-60.6h53.7l-6 60.6c-.2 1.8-1.8 3.3-3.7 3.3z" style="fill:rgb(230, 230, 230);animation-play-state:paused" ></path>
<path fill="#e0e0e0" d="M79.1 29.8H20.9c-1.4 0-2.6-1.2-2.6-2.6v-4c0-1.4 1.2-2.6 2.6-2.6h58.2c1.4 0 2.6 1.2 2.6 2.6v4c0 1.5-1.1 2.6-2.6 2.6z" style="fill:rgb(224, 224, 224);animation-play-state:paused" ></path></g>
<path fill="#a0c8d7" d="M72.9 74.7l3.5-35.1c.1-.6-.4-1.2-1.1-1.2H24.7c-.6 0-1.1.6-1.1 1.2l3.5 35.1c.1.6.5 1 1.1 1h43.6c.6 0 1-.5 1.1-1z" style="fill:rgb(18, 184, 134);animation-play-state:paused" ></path>
<metadata xmlns:d="https://loading.io/stock/" style="animation-play-state:paused" ><d:name style="animation-play-state:paused" >cup</d:name>
<d:tags style="animation-play-state:paused" >cup,drink,coffee,hot drink,bottle,cafe,tea,starbucks</d:tags>
<d:license style="animation-play-state:paused" >by</d:license>
<d:slug style="animation-play-state:paused" >1mlxwr</d:slug></metadata></g><!-- generated by https://loading.io/ --></svg>
