<svg width="18" height="18" viewBox="0 0 18 18" fill="none" xmlns="http://www.w3.org/2000/svg">
<g clip-path="url(#clip0_431_2766)">
<path d="M9.56254 17.4375H8.43754C8.02296 17.4405 7.62179 17.2908 7.31055 17.0169C6.99931 16.743 6.79978 16.3641 6.75004 15.9525C6.37256 15.8332 6.00567 15.6827 5.65317 15.5025C5.32677 15.7606 4.91653 15.889 4.50124 15.8631C4.08595 15.8371 3.69489 15.6586 3.40317 15.3619L2.63817 14.5688C2.34145 14.2771 2.16297 13.886 2.13702 13.4707C2.11106 13.0554 2.23946 12.6452 2.49754 12.3188C2.31878 11.9753 2.16829 11.6179 2.04754 11.25C1.63595 11.2003 1.25706 11.0008 0.983171 10.6895C0.709279 10.3783 0.559549 9.97713 0.562544 9.56254V8.43754C0.559549 8.02296 0.709279 7.62179 0.983171 7.31055C1.25706 6.99931 1.63595 6.79978 2.04754 6.75004C2.16684 6.37256 2.31736 6.00567 2.49754 5.65317C2.23946 5.32677 2.11106 4.91653 2.13702 4.50124C2.16297 4.08595 2.34145 3.69489 2.63817 3.40317L3.43129 2.63817C3.72301 2.34145 4.11407 2.16297 4.52937 2.13702C4.94466 2.11106 5.3549 2.23946 5.68129 2.49754C6.02474 2.31878 6.38217 2.16829 6.75004 2.04754C6.79978 1.63595 6.99931 1.25706 7.31055 0.983171C7.62179 0.709279 8.02296 0.559549 8.43754 0.562544H9.56254C9.97713 0.559549 10.3783 0.709279 10.6895 0.983171C11.0008 1.25706 11.2003 1.63595 11.25 2.04754C11.6275 2.16684 11.9944 2.31736 12.3469 2.49754C12.6733 2.23946 13.0836 2.11106 13.4988 2.13702C13.9141 2.16297 14.3052 2.34145 14.5969 2.63817L15.3619 3.43129C15.6586 3.72301 15.8371 4.11407 15.8631 4.52937C15.889 4.94466 15.7606 5.3549 15.5025 5.68129C15.6827 6.0338 15.8332 6.40069 15.9525 6.77817C16.3593 6.82732 16.7344 7.02281 17.0076 7.32814C17.2809 7.63348 17.4337 8.02781 17.4375 8.43754V9.56254C17.4405 9.97713 17.2908 10.3783 17.0169 10.6895C16.743 11.0008 16.3641 11.2003 15.9525 11.25C15.8332 11.6275 15.6827 11.9944 15.5025 12.3469C15.7606 12.6733 15.889 13.0836 15.8631 13.4988C15.8371 13.9141 15.6586 14.3052 15.3619 14.5969L14.5688 15.3619C14.2771 15.6586 13.886 15.8371 13.4707 15.8631C13.0554 15.889 12.6452 15.7606 12.3188 15.5025C11.9663 15.6827 11.5994 15.8332 11.2219 15.9525C11.1728 16.3593 10.9773 16.7344 10.6719 17.0076C10.3666 17.2809 9.97228 17.4337 9.56254 17.4375ZM5.57442 14.2482C5.67561 14.2464 5.77518 14.2738 5.86129 14.3269C6.35864 14.6194 6.89445 14.841 7.45317 14.985C7.57693 15.0169 7.68614 15.09 7.76283 15.1923C7.83951 15.2945 7.87909 15.4198 7.87504 15.5475V15.75C7.87504 15.8992 7.93431 16.0423 8.0398 16.1478C8.14529 16.2533 8.28836 16.3125 8.43754 16.3125H9.56254C9.71173 16.3125 9.8548 16.2533 9.96029 16.1478C10.0658 16.0423 10.125 15.8992 10.125 15.75V15.5307C10.121 15.4029 10.1606 15.2776 10.2373 15.1754C10.3139 15.0731 10.4232 15.0001 10.5469 14.9682C11.1056 14.8241 11.6414 14.6026 12.1388 14.31C12.2457 14.2471 12.3704 14.2212 12.4935 14.2365C12.6165 14.2518 12.7311 14.3073 12.8194 14.3944L12.9769 14.5519C13.0292 14.6046 13.0914 14.6465 13.16 14.675C13.2285 14.7036 13.302 14.7183 13.3763 14.7183C13.4506 14.7183 13.5241 14.7036 13.5926 14.675C13.6612 14.6465 13.7234 14.6046 13.7757 14.5519L14.5688 13.7588C14.6215 13.7065 14.6634 13.6443 14.6919 13.5757C14.7205 13.5072 14.7352 13.4337 14.7352 13.3594C14.7352 13.2852 14.7205 13.2116 14.6919 13.1431C14.6634 13.0745 14.6215 13.0123 14.5688 12.96L14.4113 12.8025C14.3242 12.7143 14.2686 12.5997 14.2534 12.4766C14.2381 12.3535 14.264 12.2288 14.3269 12.1219C14.6194 11.6246 14.841 11.0888 14.985 10.53C15.0169 10.4063 15.09 10.2971 15.1923 10.2204C15.2945 10.1437 15.4198 10.1041 15.5475 10.1082H15.75C15.8992 10.1082 16.0423 10.0489 16.1478 9.94342C16.2533 9.83793 16.3125 9.69485 16.3125 9.54567V8.43754C16.3125 8.28836 16.2533 8.14529 16.1478 8.0398C16.0423 7.93431 15.8992 7.87504 15.75 7.87504H15.5307C15.4029 7.87909 15.2776 7.83951 15.1754 7.76283C15.0731 7.68614 15.0001 7.57693 14.9682 7.45317C14.8241 6.89445 14.6026 6.35864 14.31 5.86129C14.2471 5.75442 14.2212 5.62973 14.2365 5.50664C14.2518 5.38354 14.3073 5.26894 14.3944 5.18067L14.5519 5.02317C14.6046 4.97088 14.6465 4.90866 14.675 4.84012C14.7036 4.77157 14.7183 4.69805 14.7183 4.62379C14.7183 4.54954 14.7036 4.47602 14.675 4.40747C14.6465 4.33892 14.6046 4.27671 14.5519 4.22442L13.7757 3.43129C13.7234 3.37857 13.6612 3.33672 13.5926 3.30817C13.5241 3.27961 13.4506 3.26491 13.3763 3.26491C13.302 3.26491 13.2285 3.27961 13.16 3.30817C13.0914 3.33672 13.0292 3.37857 12.9769 3.43129L12.8194 3.58879C12.7311 3.67593 12.6165 3.73145 12.4935 3.74671C12.3704 3.76197 12.2457 3.73612 12.1388 3.67317C11.6414 3.38064 11.1056 3.15912 10.5469 3.01504C10.4232 2.98316 10.3139 2.91008 10.2373 2.80783C10.1606 2.70559 10.121 2.58028 10.125 2.45254V2.25004C10.125 2.10086 10.0658 1.95779 9.96029 1.8523C9.8548 1.74681 9.71173 1.68754 9.56254 1.68754H8.43754C8.28836 1.68754 8.14529 1.74681 8.0398 1.8523C7.93431 1.95779 7.87504 2.10086 7.87504 2.25004V2.46942C7.87909 2.59716 7.83951 2.72247 7.76283 2.82471C7.68614 2.92695 7.57693 3.00003 7.45317 3.03192C6.89445 3.176 6.35864 3.39752 5.86129 3.69004C5.75442 3.75299 5.62973 3.77884 5.50664 3.76359C5.38354 3.74833 5.26894 3.69281 5.18067 3.60567L5.02317 3.43129C4.97088 3.37857 4.90866 3.33672 4.84012 3.30817C4.77157 3.27961 4.69805 3.26491 4.62379 3.26491C4.54954 3.26491 4.47602 3.27961 4.40747 3.30817C4.33892 3.33672 4.27671 3.37857 4.22442 3.43129L3.43129 4.22442C3.37857 4.27671 3.33672 4.33892 3.30817 4.40747C3.27961 4.47602 3.26491 4.54954 3.26491 4.62379C3.26491 4.69805 3.27961 4.77157 3.30817 4.84012C3.33672 4.90866 3.37857 4.97088 3.43129 5.02317L3.58879 5.18067C3.67593 5.26894 3.73145 5.38354 3.74671 5.50664C3.76197 5.62973 3.73612 5.75442 3.67317 5.86129C3.38064 6.35864 3.15912 6.89445 3.01504 7.45317C2.98316 7.57693 2.91008 7.68614 2.80783 7.76283C2.70559 7.83951 2.58028 7.87909 2.45254 7.87504H2.25004C2.10086 7.87504 1.95779 7.93431 1.8523 8.0398C1.74681 8.14529 1.68754 8.28836 1.68754 8.43754V9.56254C1.68754 9.71173 1.74681 9.8548 1.8523 9.96029C1.95779 10.0658 2.10086 10.125 2.25004 10.125H2.46942C2.59716 10.121 2.72247 10.1606 2.82471 10.2373C2.92695 10.3139 3.00003 10.4232 3.03192 10.5469C3.176 11.1056 3.39752 11.6414 3.69004 12.1388C3.75299 12.2457 3.77884 12.3704 3.76359 12.4935C3.74833 12.6165 3.69281 12.7311 3.60567 12.8194L3.44817 12.9769C3.39545 13.0292 3.3536 13.0914 3.32504 13.16C3.29649 13.2285 3.28178 13.302 3.28178 13.3763C3.28178 13.4506 3.29649 13.5241 3.32504 13.5926C3.3536 13.6612 3.39545 13.7234 3.44817 13.7757L4.22442 14.5688C4.27671 14.6215 4.33892 14.6634 4.40747 14.6919C4.47602 14.7205 4.54954 14.7352 4.62379 14.7352C4.69805 14.7352 4.77157 14.7205 4.84012 14.6919C4.90866 14.6634 4.97088 14.6215 5.02317 14.5688L5.18067 14.4113C5.28544 14.3074 5.42685 14.2488 5.57442 14.2482Z" fill="#101820"/>
<path d="M9 12.9375C8.22124 12.9375 7.45996 12.7066 6.81244 12.2739C6.16493 11.8413 5.66025 11.2263 5.36223 10.5068C5.06421 9.78733 4.98623 8.99563 5.13816 8.23183C5.29009 7.46803 5.6651 6.76644 6.21577 6.21577C6.76644 5.6651 7.46803 5.29009 8.23183 5.13816C8.99563 4.98623 9.78733 5.06421 10.5068 5.36223C11.2263 5.66025 11.8413 6.16493 12.2739 6.81244C12.7066 7.45996 12.9375 8.22124 12.9375 9C12.9375 10.0443 12.5227 11.0458 11.7842 11.7842C11.0458 12.5227 10.0443 12.9375 9 12.9375ZM9 6.1875C8.44374 6.1875 7.89997 6.35245 7.43746 6.66149C6.97495 6.97054 6.61446 7.40979 6.40159 7.9237C6.18872 8.43762 6.13302 9.00312 6.24154 9.54869C6.35006 10.0943 6.61793 10.5954 7.01126 10.9887C7.4046 11.3821 7.90574 11.6499 8.45131 11.7585C8.99688 11.867 9.56238 11.8113 10.0763 11.5984C10.5902 11.3855 11.0295 11.0251 11.3385 10.5625C11.6476 10.1 11.8125 9.55626 11.8125 9C11.8125 8.25408 11.5162 7.53871 10.9887 7.01126C10.4613 6.48382 9.74592 6.1875 9 6.1875Z" fill="#101820"/>
</g>
<defs>
<clipPath id="clip0_431_2766">
<rect width="18" height="18" fill="white"/>
</clipPath>
</defs>
</svg>
