<?xml version="1.0" encoding="utf-8"?><svg xml:space="preserve" viewBox="0 0 100 100" y="0px" x="0px" xmlns:xlink="http://www.w3.org/1999/xlink" xmlns="http://www.w3.org/2000/svg" id="圖層_1" version="1.1" width="200px" height="200px" style="width:100%;height:100%;background-size:initial;background-repeat-y:initial;background-repeat-x:initial;background-position-y:initial;background-position-x:initial;background-origin:initial;background-color:initial;background-clip:initial;background-attachment:initial;animation-play-state:paused" ><g class="ldl-scale" style="transform-origin:50% 50%;transform:rotate(0deg) scale(0.8, 0.8);animation-play-state:paused" ><g style="animation-play-state:paused" ><path d="M84.88,85.81c-0.85-6.26-6.19-10.93-12.51-10.94l-1,0L65.61,46.4c-0.41-2.01-2.18-3.46-4.23-3.46H37.69 c-2.05,0-3.82,1.45-4.23,3.46l-5.76,28.47l-1,0c-6.32,0-11.66,4.68-12.51,10.94c-0.17,1.23,0.99,2.23,2.2,1.93l10.3-2.55 c3.91-0.97,7.03-3.76,8.49-7.38h28.7c1.47,3.62,4.59,6.41,8.49,7.38l10.3,2.55C83.88,88.04,85.04,87.04,84.88,85.81z" stroke-miterlimit="10" stroke-linejoin="round" stroke-linecap="round" stroke-width="3.5" stroke="#333435" fill="#C69C6D" style="stroke:rgb(51, 52, 53);fill:rgb(198, 156, 109);animation-play-state:paused" ></path>
<path d="M54.74,74.31l-1.16-8.91c-0.23-1.74-1.48-3.25-3.2-3.6c-2.39-0.49-4.56,1.15-4.86,3.45l-1.18,9.06c-0.34,2.64-0.34,5.32,0,7.96 l1.16,8.91c0.23,1.74,1.48,3.25,3.2,3.6c2.39,0.49,4.56-1.15,4.86-3.45l1.18-9.06C55.09,79.63,55.09,76.95,54.74,74.31z" stroke-miterlimit="10" stroke-linejoin="round" stroke-linecap="round" stroke-width="3.5" stroke="#333435" fill="#C69C6D" style="stroke:rgb(51, 52, 53);fill:rgb(198, 156, 109);animation-play-state:paused" ></path></g>
<g style="animation-play-state:paused" ><path d="M63.6,42.1c0.67-0.21,1.21-0.54,1.78-1.11 c0.56-0.57,1.1-1.4,1.56-2.35c0.93-1.93,1.54-4.32,1.99-6.77c0.42-2.47,0.73-5.03,0.89-7.63c0.12-1.3,0.25-2.61,0.45-3.95 c0.2-1.33,0.42-2.68,0.79-4.07c0.76,1.23,1.28,2.53,1.72,3.85c0.45,1.32,0.75,2.66,0.97,4.01c0.38,2.71,0.63,5.48,0.56,8.31 c-0.07,2.83-0.38,5.74-1.49,8.74c-0.56,1.49-1.35,3.02-2.6,4.41c-1.22,1.39-3.02,2.54-4.94,3c-1.78,0.43-3.57-0.67-4-2.45 c-0.41-1.7,0.56-3.4,2.19-3.93L63.6,42.1z" stroke-miterlimit="10" stroke-width="3.5" stroke="#333435" fill="#C69C6D" style="stroke:rgb(51, 52, 53);fill:rgb(198, 156, 109);animation-play-state:paused" ></path>
<path d="M59.4,13.82c5.43-0.28,11.47,4.91,11.47,4.91s-6.1,5.81-11.52,6.08c-5.43,0.28-11.47-4.91-11.47-4.91S53.97,14.09,59.4,13.82z" stroke-miterlimit="10" stroke-linejoin="round" stroke-linecap="round" stroke-width="3.5" stroke="#333435" fill="#689991" style="stroke:rgb(51, 52, 53);fill:rgb(18, 184, 134);animation-play-state:paused" ></path>
<path d="M79.53,11.09C84.34,8.56,92,10.72,92,10.72s-3.09,7.83-7.89,10.37s-12.47,0.37-12.47,0.37S74.72,13.63,79.53,11.09z" stroke-miterlimit="10" stroke-linejoin="round" stroke-linecap="round" stroke-width="3.5" stroke="#333435" fill="#689991" style="stroke:rgb(51, 52, 53);fill:rgb(18, 184, 134);animation-play-state:paused" ></path></g>
<metadata xmlns:d="https://loading.io/stock/" style="animation-play-state:paused" ><d:name style="animation-play-state:paused" >tree</d:name>


<d:tags style="animation-play-state:paused" >tree,grow,wood,plant,leaf</d:tags>


<d:license style="animation-play-state:paused" >by</d:license>


<d:slug style="animation-play-state:paused" >c5a748</d:slug></metadata></g><!-- generated by https://loading.io/ --></svg>