<svg width="10" height="14" viewBox="0 0 10 14" fill="none" xmlns="http://www.w3.org/2000/svg">
<g clip-path="url(#clip0_318_2651)">
<path d="M0.398438 4.34485L1.74075 12.7825C1.74075 13.4468 2.17075 14 2.69998 14H5.00036H7.30075C7.82998 14 8.25959 13.4468 8.25959 12.7825L9.60228 4.34485H5.00036H0.398438Z" fill="#231F20"/>
<path d="M9.04769 1.44828H8.07692V1.36331C8.07692 0.610207 7.59077 0 6.99077 0H3.00923C2.40923 0 1.92308 0.610207 1.92308 1.36331V1.44828H0.952308C0.363846 1.44828 0 1.90159 0 2.63972V3.37931H3.00923H6.99077H10V2.63972C10 1.90159 9.63577 1.44828 9.04769 1.44828Z" fill="#231F20"/>
</g>
<defs>
<clipPath id="clip0_318_2651">
<rect width="10" height="14" fill="white"/>
</clipPath>
</defs>
</svg>
